name rise45.9887peak57.8056fall74.9286.mot
datacolumns 19
datarows 24
range 14.03328900000000 14.07162000000000
endheader
time	ground_force1_vx	ground_force1_vy	ground_force1_vz	ground_force1_px	ground_force1_py	ground_force1_pz	ground_force2_vx	ground_force2_vy	ground_force2_vz	ground_force2_px	ground_force2_py	ground_force2_pz	ground_torque1_x	ground_torque1_y	ground_torque1_z	ground_torque2_x	ground_torque2_y	ground_torque2_z	
14.03328900000000	-0.67355600000000	705.11452399999996	45.15553300000000	0.20344000000000	0.00000000000000	0.14655100000000	0.00000000000000	0.00000000000000	0.00000000000000	0.00000000000000	0.00000000000000	0.00000000000000	0.00000000000000	18.73620500000000	0.00000000000000	0.00000000000000	0.00000000000000	0.00000000000000	
14.03494600000000	-1.01463500000000	706.15221699999995	45.16774400000000	0.20265300000000	0.00000000000000	0.14654300000000	0.00000000000000	0.00000000000000	0.00000000000000	0.00000000000000	0.00000000000000	0.00000000000000	0.00000000000000	18.78389500000000	0.00000000000000	0.00000000000000	0.00000000000000	0.00000000000000	
14.03661100000000	-1.36757900000000	707.24133700000004	45.18624500000000	0.20183900000000	0.00000000000000	0.14653700000000	0.00000000000000	0.00000000000000	0.00000000000000	0.00000000000000	0.00000000000000	0.00000000000000	0.00000000000000	18.83673000000000	0.00000000000000	0.00000000000000	0.00000000000000	0.00000000000000	
14.03828500000000	-1.73260800000000	708.37996499999997	45.21084600000000	0.20100100000000	0.00000000000000	0.14653400000000	0.00000000000000	0.00000000000000	0.00000000000000	0.00000000000000	0.00000000000000	0.00000000000000	0.00000000000000	18.89464900000000	0.00000000000000	0.00000000000000	0.00000000000000	0.00000000000000	
14.03995900000000	-2.10988900000000	709.56617400000005	45.24136400000000	0.20013600000000	0.00000000000000	0.14653300000000	0.00000000000000	0.00000000000000	0.00000000000000	0.00000000000000	0.00000000000000	0.00000000000000	0.00000000000000	18.95758700000000	0.00000000000000	0.00000000000000	0.00000000000000	0.00000000000000	
14.04161500000000	-2.49954400000000	710.79802900000004	45.27761500000000	0.19924700000000	0.00000000000000	0.14653500000000	0.00000000000000	0.00000000000000	0.00000000000000	0.00000000000000	0.00000000000000	0.00000000000000	0.00000000000000	19.02547600000000	0.00000000000000	0.00000000000000	0.00000000000000	0.00000000000000	
14.04329600000000	-2.90164300000000	712.07359199999996	45.31942300000000	0.19833200000000	0.00000000000000	0.14653800000000	0.00000000000000	0.00000000000000	0.00000000000000	0.00000000000000	0.00000000000000	0.00000000000000	0.00000000000000	19.09824500000000	0.00000000000000	0.00000000000000	0.00000000000000	0.00000000000000	
14.04495100000000	-3.31620900000000	713.39092600000004	45.36661300000000	0.19739400000000	0.00000000000000	0.14654400000000	0.00000000000000	0.00000000000000	0.00000000000000	0.00000000000000	0.00000000000000	0.00000000000000	0.00000000000000	19.17581800000000	0.00000000000000	0.00000000000000	0.00000000000000	0.00000000000000	
14.04661500000000	-3.74321500000000	714.74809800000003	45.41901700000000	0.19643200000000	0.00000000000000	0.14655200000000	0.00000000000000	0.00000000000000	0.00000000000000	0.00000000000000	0.00000000000000	0.00000000000000	0.00000000000000	19.25811800000000	0.00000000000000	0.00000000000000	0.00000000000000	0.00000000000000	
14.04829300000000	-4.18258700000000	716.14318200000002	45.47646900000000	0.19544700000000	0.00000000000000	0.14656300000000	0.00000000000000	0.00000000000000	0.00000000000000	0.00000000000000	0.00000000000000	0.00000000000000	0.00000000000000	19.34506100000000	0.00000000000000	0.00000000000000	0.00000000000000	0.00000000000000	
14.04995100000000	-4.63420400000000	717.57426399999997	45.53880900000000	0.19444200000000	0.00000000000000	0.14657500000000	0.00000000000000	0.00000000000000	0.00000000000000	0.00000000000000	0.00000000000000	0.00000000000000	0.00000000000000	19.43656200000000	0.00000000000000	0.00000000000000	0.00000000000000	0.00000000000000	
14.05161900000000	-5.09790000000000	719.03943800000002	45.60588100000000	0.19341600000000	0.00000000000000	0.14659000000000	0.00000000000000	0.00000000000000	0.00000000000000	0.00000000000000	0.00000000000000	0.00000000000000	0.00000000000000	19.53252900000000	0.00000000000000	0.00000000000000	0.00000000000000	0.00000000000000	
14.05329100000000	-5.57346300000000	720.53681800000004	45.67753600000000	0.19237200000000	0.00000000000000	0.14660600000000	0.00000000000000	0.00000000000000	0.00000000000000	0.00000000000000	0.00000000000000	0.00000000000000	0.00000000000000	19.63286700000000	0.00000000000000	0.00000000000000	0.00000000000000	0.00000000000000	
14.05495300000000	-6.06063800000000	722.06453099999999	45.75362600000000	0.19131200000000	0.00000000000000	0.14662400000000	0.00000000000000	0.00000000000000	0.00000000000000	0.00000000000000	0.00000000000000	0.00000000000000	0.00000000000000	19.73747600000000	0.00000000000000	0.00000000000000	0.00000000000000	0.00000000000000	
14.05661400000000	-6.55913200000000	723.62072499999999	45.83401200000000	0.19023600000000	0.00000000000000	0.14664400000000	0.00000000000000	0.00000000000000	0.00000000000000	0.00000000000000	0.00000000000000	0.00000000000000	0.00000000000000	19.84624900000000	0.00000000000000	0.00000000000000	0.00000000000000	0.00000000000000	
14.05829500000000	-7.06860800000000	725.20357000000001	45.91855800000000	0.18914600000000	0.00000000000000	0.14666600000000	0.00000000000000	0.00000000000000	0.00000000000000	0.00000000000000	0.00000000000000	0.00000000000000	0.00000000000000	19.95907700000000	0.00000000000000	0.00000000000000	0.00000000000000	0.00000000000000	
14.05994400000000	-7.58869500000000	726.81125499999996	46.00713300000000	0.18804500000000	0.00000000000000	0.14668900000000	0.00000000000000	0.00000000000000	0.00000000000000	0.00000000000000	0.00000000000000	0.00000000000000	0.00000000000000	20.07584300000000	0.00000000000000	0.00000000000000	0.00000000000000	0.00000000000000	
14.06161900000000	-8.11898700000000	728.44199400000002	46.09961200000000	0.18693300000000	0.00000000000000	0.14671400000000	0.00000000000000	0.00000000000000	0.00000000000000	0.00000000000000	0.00000000000000	0.00000000000000	0.00000000000000	20.19642600000000	0.00000000000000	0.00000000000000	0.00000000000000	0.00000000000000	
14.06328600000000	-8.65904300000000	730.09402699999998	46.19587600000000	0.18581400000000	0.00000000000000	0.14674000000000	0.00000000000000	0.00000000000000	0.00000000000000	0.00000000000000	0.00000000000000	0.00000000000000	0.00000000000000	20.32069900000000	0.00000000000000	0.00000000000000	0.00000000000000	0.00000000000000	
14.06494700000000	-9.20839400000000	731.76561800000002	46.29580900000000	0.18468900000000	0.00000000000000	0.14676700000000	0.00000000000000	0.00000000000000	0.00000000000000	0.00000000000000	0.00000000000000	0.00000000000000	0.00000000000000	20.44853000000000	0.00000000000000	0.00000000000000	0.00000000000000	0.00000000000000	
14.06661100000000	-9.76654200000000	733.45505700000001	46.39930300000000	0.18356000000000	0.00000000000000	0.14679500000000	0.00000000000000	0.00000000000000	0.00000000000000	0.00000000000000	0.00000000000000	0.00000000000000	0.00000000000000	20.57978000000000	0.00000000000000	0.00000000000000	0.00000000000000	0.00000000000000	
14.06829300000000	-10.33296400000000	735.16066300000000	46.50625400000000	0.18242900000000	0.00000000000000	0.14682400000000	0.00000000000000	0.00000000000000	0.00000000000000	0.00000000000000	0.00000000000000	0.00000000000000	0.00000000000000	20.71430400000000	0.00000000000000	0.00000000000000	0.00000000000000	0.00000000000000	
14.06995100000000	-10.90711500000000	736.88078199999995	46.61656300000000	0.18129800000000	0.00000000000000	0.14685400000000	0.00000000000000	0.00000000000000	0.00000000000000	0.00000000000000	0.00000000000000	0.00000000000000	0.00000000000000	20.85195300000000	0.00000000000000	0.00000000000000	0.00000000000000	0.00000000000000	
14.07162000000000	-11.48842900000000	738.61378600000000	46.73013800000000	0.18016800000000	0.00000000000000	0.14688500000000	0.00000000000000	0.00000000000000	0.00000000000000	0.00000000000000	0.00000000000000	0.00000000000000	0.00000000000000	20.99257200000000	0.00000000000000	0.00000000000000	0.00000000000000	0.00000000000000	
